<svg width="850" height="189" viewBox="0 0 850 189" fill="none" xmlns="http://www.w3.org/2000/svg">
<path d="M2.59076 48.7364L7.74413 48.2859C7.98818 50.351 8.55139 52.05 9.43376 53.3829C10.3349 54.6971 11.7241 55.7672 13.6015 56.5932C15.4789 57.4005 17.5909 57.8041 19.9376 57.8041C22.0215 57.8041 23.8613 57.4943 25.4571 56.8748C27.0528 56.2553 28.2356 55.4105 29.0053 54.3404C29.7938 53.2515 30.188 52.0687 30.188 50.7921C30.188 49.4968 29.8125 48.3703 29.0616 47.4129C28.3107 46.4367 27.0716 45.62 25.3444 44.9629C24.2368 44.5311 21.7868 43.8647 17.9945 42.9635C14.2023 42.0436 11.5458 41.18 10.0251 40.3728C8.05389 39.3402 6.58016 38.0636 5.60393 36.5429C4.64648 35.0035 4.16775 33.2857 4.16775 31.3896C4.16775 29.3057 4.75912 27.3626 5.94186 25.5604C7.1246 23.7393 8.85177 22.3595 11.1234 21.4208C13.395 20.4821 15.92 20.0127 18.6985 20.0127C21.7587 20.0127 24.4527 20.5102 26.7806 21.5053C29.1273 22.4815 30.9296 23.9271 32.1874 25.842C33.4452 27.7569 34.1211 29.9252 34.215 32.347L28.9771 32.7413C28.6955 30.1317 27.7381 28.1605 26.1048 26.8276C24.4902 25.4947 22.0966 24.8282 18.9238 24.8282C15.6197 24.8282 13.2073 25.4383 11.6866 26.6586C10.1847 27.8601 9.43376 29.3151 9.43376 31.0235C9.43376 32.5066 9.9688 33.7269 11.0389 34.6843C12.0902 35.6418 14.8312 36.6274 19.2618 37.6412C23.7111 38.6362 26.7618 39.5092 28.4139 40.2601C30.8169 41.3678 32.591 42.7758 33.7362 44.4842C34.8814 46.1738 35.454 48.1263 35.454 50.3416C35.454 52.5381 34.8251 54.6126 33.5673 56.565C32.3094 58.4987 30.4978 60.01 28.1323 61.0989C25.7856 62.169 23.1385 62.704 20.1911 62.704C16.4551 62.704 13.3199 62.1596 10.7855 61.0707C8.26979 59.9818 6.28917 58.3485 4.8436 56.1708C3.4168 53.9743 2.66586 51.4961 2.59076 48.7364ZM58.0342 62V25.5885H44.4327V20.7168H77.1552V25.5885H63.4973V62H58.0342ZM78.5868 62L94.4412 20.7168H100.327L117.223 62H111L106.184 49.4968H88.9217L84.3879 62H78.5868ZM90.4987 45.0474H104.494L100.186 33.6143C98.8718 30.1411 97.8955 27.2875 97.2572 25.0535C96.7316 27.7006 95.99 30.3289 95.0326 32.9384L90.4987 45.0474ZM125.976 62V20.7168H131.44V41.1894L151.94 20.7168H159.347L142.028 37.4441L160.107 62H152.898L138.198 41.1049L131.44 47.6945V62H125.976ZM169.395 62V20.7168H199.245V25.5885H174.858V38.2326H197.697V43.0762H174.858V57.1282H200.203V62H169.395ZM262.485 47.5255L267.948 48.9054C266.803 53.3923 264.738 56.8185 261.753 59.184C258.786 61.5307 255.154 62.704 250.855 62.704C246.405 62.704 242.782 61.8029 239.985 60.0006C237.206 58.1796 235.085 55.5513 233.62 52.1157C232.175 48.6801 231.452 44.9911 231.452 41.0486C231.452 36.7495 232.269 33.0041 233.902 29.8126C235.554 26.6023 237.891 24.1711 240.914 22.519C243.955 20.8482 247.297 20.0127 250.939 20.0127C255.069 20.0127 258.542 21.0641 261.358 23.1667C264.174 25.2694 266.136 28.2262 267.244 32.0373L261.865 33.3045C260.908 30.3007 259.519 28.1136 257.698 26.7431C255.876 25.3726 253.586 24.6874 250.826 24.6874C247.654 24.6874 244.997 25.4477 242.857 26.9684C240.736 28.489 239.243 30.5354 238.379 33.1074C237.516 35.6606 237.084 38.2983 237.084 41.0205C237.084 44.5311 237.591 47.6006 238.605 50.2289C239.637 52.8385 241.233 54.7909 243.392 56.0863C245.551 57.3817 247.888 58.0294 250.404 58.0294C253.464 58.0294 256.055 57.147 258.176 55.3823C260.298 53.6176 261.734 50.9986 262.485 47.5255ZM274.786 62L290.641 20.7168H296.526L313.423 62H307.199L302.384 49.4968H285.121L280.587 62H274.786ZM286.698 45.0474H300.694L296.386 33.6143C295.071 30.1411 294.095 27.2875 293.457 25.0535C292.931 27.7006 292.19 30.3289 291.232 32.9384L286.698 45.0474ZM322.401 62V20.7168H337.974C340.715 20.7168 342.808 20.8482 344.254 21.111C346.281 21.4489 347.98 22.0966 349.351 23.0541C350.721 23.9928 351.82 25.3163 352.646 27.0247C353.49 28.7331 353.913 30.6105 353.913 32.6568C353.913 36.1675 352.796 39.1431 350.562 41.5837C348.328 44.0055 344.291 45.2164 338.453 45.2164H327.864V62H322.401ZM327.864 40.3446H338.537C342.067 40.3446 344.573 39.6875 346.056 38.3734C347.539 37.0592 348.281 35.21 348.281 32.8258C348.281 31.0986 347.84 29.6249 346.957 28.4046C346.094 27.1655 344.948 26.3489 343.522 25.9546C342.602 25.7105 340.903 25.5885 338.425 25.5885H327.864V40.3446ZM366.412 62V20.7168H371.875V62H366.412ZM396.651 62V25.5885H383.05V20.7168H415.772V25.5885H402.115V62H396.651ZM417.204 62L433.058 20.7168H438.944L455.84 62H449.617L444.801 49.4968H427.539L423.005 62H417.204ZM429.116 45.0474H443.112L438.803 33.6143C437.489 30.1411 436.513 27.2875 435.874 25.0535C435.349 27.7006 434.607 30.3289 433.65 32.9384L429.116 45.0474ZM464.594 62V20.7168H470.057V57.1282H490.389V62H464.594ZM519.892 62V20.7168H528.002L544.898 48.2859V20.7168H552.642V62H544.279L527.636 35.0786V62H519.892ZM564.409 41.6118C564.409 37.4065 565.038 33.8771 566.296 31.0235C567.234 28.9208 568.511 27.0341 570.126 25.3632C571.759 23.6924 573.542 22.4533 575.476 21.6461C578.048 20.5572 581.014 20.0127 584.375 20.0127C590.457 20.0127 595.32 21.8995 598.962 25.673C602.623 29.4465 604.453 34.6937 604.453 41.4147C604.453 48.0793 602.641 53.2984 599.018 57.0719C595.395 60.8266 590.551 62.704 584.487 62.704C578.348 62.704 573.467 60.836 569.844 57.1001C566.221 53.3454 564.409 48.1826 564.409 41.6118ZM572.998 41.3302C572.998 46.0049 574.077 49.5531 576.236 51.9749C578.395 54.3779 581.136 55.5794 584.459 55.5794C587.782 55.5794 590.504 54.3873 592.626 52.003C594.766 49.6 595.836 46.0049 595.836 41.2176C595.836 36.4866 594.794 32.9572 592.71 30.6292C590.645 28.3013 587.895 27.1373 584.459 27.1373C581.024 27.1373 578.254 28.3201 576.152 30.6856C574.049 33.0323 572.998 36.5805 572.998 41.3302ZM615.572 20.7168H630.807C634.242 20.7168 636.861 20.9796 638.664 21.5053C641.085 22.2187 643.16 23.4859 644.887 25.3069C646.614 27.128 647.928 29.362 648.829 32.0091C649.731 34.6374 650.181 37.8853 650.181 41.7526C650.181 45.1507 649.759 48.0793 648.914 50.5387C647.881 53.5425 646.408 55.9737 644.493 57.8323C643.047 59.2403 641.095 60.3385 638.635 61.127C636.796 61.709 634.336 62 631.257 62H615.572V20.7168ZM623.907 27.7006V55.0444H630.131C632.459 55.0444 634.139 54.9129 635.172 54.6501C636.523 54.3122 637.64 53.7396 638.523 52.9323C639.424 52.1251 640.156 50.8015 640.719 48.9617C641.282 47.1031 641.564 44.5781 641.564 41.3865C641.564 38.195 641.282 35.7451 640.719 34.0367C640.156 32.3283 639.368 30.9953 638.354 30.0379C637.34 29.0804 636.054 28.4327 634.496 28.0948C633.332 27.832 631.051 27.7006 627.653 27.7006H623.907ZM661.891 62V20.7168H692.502V27.7006H670.227V36.8527H690.953V43.8083H670.227V55.0444H693.29V62H661.891ZM702.86 48.5675L710.971 47.779C711.459 50.5011 712.444 52.5005 713.927 53.7771C715.429 55.0538 717.448 55.6921 719.982 55.6921C722.667 55.6921 724.685 55.1288 726.036 54.0024C727.407 52.8572 728.092 51.5243 728.092 50.0036C728.092 49.0274 727.801 48.2014 727.219 47.5255C726.656 46.8309 725.661 46.2301 724.234 45.7233C723.258 45.3853 721.033 44.7846 717.56 43.921C713.092 42.8133 709.957 41.4522 708.155 39.8377C705.62 37.5661 704.353 34.797 704.353 31.5304C704.353 29.4277 704.944 27.4659 706.127 25.6448C707.329 23.805 709.046 22.4064 711.28 21.4489C713.533 20.4915 716.246 20.0127 719.419 20.0127C724.6 20.0127 728.496 21.1486 731.105 23.4202C733.734 25.6918 735.114 28.7237 735.245 32.516L726.909 32.8821C726.553 30.7607 725.783 29.24 724.6 28.3201C723.436 27.3814 721.681 26.9121 719.334 26.9121C716.912 26.9121 715.016 27.4096 713.646 28.4046C712.764 29.0429 712.322 29.8971 712.322 30.9672C712.322 31.9434 712.735 32.7788 713.561 33.4734C714.613 34.3558 717.166 35.2757 721.221 36.2332C725.276 37.1906 728.271 38.1856 730.204 39.2182C732.157 40.232 733.677 41.6306 734.766 43.4141C735.874 45.1788 736.428 47.3659 736.428 49.9755C736.428 52.341 735.771 54.5563 734.456 56.6214C733.142 58.6865 731.284 60.2259 728.881 61.2397C726.478 62.2347 723.483 62.7322 719.898 62.7322C714.678 62.7322 710.67 61.5307 707.873 59.1276C705.076 56.7058 703.405 53.1858 702.86 48.5675Z" fill="black"/>
<path d="M815.151 21.0055H833.011L832.858 19.3084C832.818 18.848 832.762 18.3987 832.697 17.9716C832.004 13.3475 829.735 9.01919 826.312 5.78518C822.88 2.5356 818.411 0.511569 813.745 0.0911928C813.425 0.0578296 813.087 0.0355874 812.744 0.0222421C812.446 0.00444843 812.164 0.00222421 811.937 0H811.903C811.772 0 811.632 0 811.487 0.00222421H811.365C811.198 0.00667264 811.051 0.0111211 810.914 0.0177937H810.902C810.647 0.0266906 810.404 0.0444843 810.2 0.0600538L809.732 0.0978654C809.479 0.122332 809.243 0.151247 809.039 0.180161C808.805 0.2113 808.594 0.242439 808.387 0.273578L808.1 0.324735C807.457 0.43817 806.819 0.582744 806.214 0.74956C805.996 0.807389 805.787 0.869668 805.571 0.936394C804.61 1.23221 803.651 1.60588 802.717 2.05295C801.338 2.71132 800.019 3.53205 798.8 4.48846C797.677 5.36703 796.641 6.35903 795.715 7.43777C795.057 8.20957 794.445 9.04365 793.898 9.9111L792.851 11.5704L794.706 12.2132C795.068 12.3377 795.44 12.4778 795.804 12.6246C801.445 14.92 802.288 18.1007 802.288 19.7933V33.8725L815.151 21.0055ZM825.925 14.4685C825.991 14.7599 825.945 15.049 825.787 15.3026C825.624 15.5606 825.387 15.7319 825.091 15.803C825.035 15.8142 824.948 15.8297 824.839 15.8297C824.312 15.8297 823.876 15.485 823.758 14.9712C822.633 10.1424 817.873 9.17266 817.686 9.13707C817.084 9.01474 816.688 8.42755 816.808 7.82701C816.91 7.30654 817.366 6.93065 817.895 6.93065C817.964 6.93065 818.033 6.93732 818.102 6.95067C818.362 7.00182 824.479 8.26518 825.925 14.4685Z" fill="black"/>
<path d="M795.7 26.8107C794.63 27.2355 793.445 27.6047 792.175 27.905C791.278 28.1185 790.322 28.3031 789.33 28.4522C787.688 28.7013 785.951 28.8503 784.163 28.8948H784.134C783.998 28.9014 783.863 28.9037 783.718 28.9059C783.267 28.9148 782.806 28.9148 782.339 28.9059C777.851 28.8369 773.598 28.0918 770.362 26.8085C769.634 26.5193 768.943 26.1968 768.311 25.8476L766 24.5665V63.7571C766 65.5987 767.641 67.3359 770.622 68.6504C773.335 69.847 776.976 70.6188 780.889 70.8234L781.529 70.8501H781.552C781.803 70.859 782.065 70.8657 782.328 70.8701C782.561 70.8746 782.799 70.8768 783.033 70.8768C783.267 70.8768 783.493 70.8746 783.723 70.8701H783.729C783.8 70.8701 783.867 70.8679 783.936 70.8657H783.945C783.978 70.8657 784.012 70.8657 784.041 70.8635L784.187 70.859C784.419 70.8523 784.648 70.8434 784.897 70.8345L785.68 70.7945C794.014 70.2607 800.064 67.3025 800.064 63.7571V24.5642L797.751 25.8498C797.132 26.1946 796.443 26.5171 795.7 26.8107Z" fill="black"/>
<path d="M792.301 13.8013L792.101 13.7479H792.099C791.243 13.5255 790.342 13.3364 789.423 13.1852C787.397 12.8449 785.246 12.6714 783.033 12.6714C778.727 12.6714 774.601 13.3475 771.414 14.5731C767.924 15.9165 766 17.7693 766 19.7933C766 20.8921 766.558 21.9374 767.659 22.9005C770.493 25.3761 776.383 26.913 783.033 26.913C784.964 26.913 786.87 26.7796 788.707 26.5171C789.697 26.3703 790.662 26.1857 791.57 25.9677C794.561 25.256 796.923 24.195 798.402 22.9028C799.506 21.9374 800.064 20.8921 800.064 19.7933C800.064 17.3066 797.235 15.1247 792.301 13.8013Z" fill="black"/>
<path d="M835.823 38.1408V69.7558L849.219 56.366V24.7466L835.823 38.1408Z" fill="black"/>
<path d="M833.672 38.7747H802.344V69.807H833.672V38.7747Z" fill="black"/>
<path d="M816.08 23.2297L802.682 36.6239H834.303L847.698 23.2297H816.08Z" fill="black"/>
</svg>
