<svg width="24" height="24" viewBox="0 0 24 24" fill="currentColor" xmlns="http://www.w3.org/2000/svg">
<path fill-rule="evenodd" clip-rule="evenodd" d="M11.8814 13.5725C9.98385 13.5725 8.46047 12.0901 8.46047 10.2435C8.46047 8.39695 9.98385 6.9145 11.8814 6.9145C13.779 6.9145 15.3023 8.39695 15.3023 10.2435C15.3023 12.0901 13.779 13.5725 11.8814 13.5725ZM11.8814 5.25C14.7144 5.25 17.0128 7.48667 17.0128 10.2435C17.0128 13.0003 14.7144 15.237 11.8814 15.237C9.04844 15.237 6.75 13.0003 6.75 10.2435C6.75 7.48667 9.04844 5.25 11.8814 5.25ZM16.7723 15.4971C17.1197 15.8352 17.1197 16.3553 16.7723 16.6674L13.3513 19.9964C13.0039 20.3345 12.4694 20.3345 12.1487 19.9964C11.8012 19.6583 11.8012 19.1382 12.1487 18.8261L15.5696 15.4971C15.8903 15.159 16.4516 15.159 16.7723 15.4971ZM18.75 6.08225C18.75 6.55039 18.3758 6.9145 17.8948 6.9145C17.4137 6.9145 17.0395 6.55039 17.0395 6.08225C17.0395 5.61411 17.4137 5.25 17.8948 5.25C18.3491 5.25 18.75 5.61411 18.75 6.08225Z" fill="currentColor"/>
</svg>
