<svg width="24" height="24" viewBox="0 0 24 24" fill="currentColor" xmlns="http://www.w3.org/2000/svg">
<path d="M16.6292 8.89021C16.3003 8.7003 15.8773 8.7003 15.5013 8.89021L12.8695 10.457L11.0836 11.454L8.49869 13.0208C8.16971 13.2107 7.74674 13.2107 7.37076 13.0208L5.34987 11.7863C5.02089 11.5964 4.7859 11.2166 4.7859 10.7893V8.41543C4.7859 8.03561 4.97389 7.65579 5.34987 7.4184L7.37076 6.23145C7.69974 6.04154 8.12272 6.04154 8.49869 6.23145L10.5196 7.46588C10.8486 7.65579 11.0836 8.03561 11.0836 8.46291V10.0297L12.8695 8.98516V7.37092C12.8695 6.9911 12.6815 6.61128 12.3055 6.37389L8.54569 4.14243C8.21671 3.95252 7.79373 3.95252 7.41775 4.14243L3.56397 6.42136C3.18799 6.61128 3 6.9911 3 7.37092V11.8338C3 12.2136 3.18799 12.5935 3.56397 12.8309L7.37076 15.0623C7.69974 15.2522 8.12272 15.2522 8.49869 15.0623L11.0836 13.543L12.8695 12.4985L15.4543 10.9792C15.7833 10.7893 16.2063 10.7893 16.5822 10.9792L18.6031 12.1662C18.9321 12.3561 19.1671 12.7359 19.1671 13.1632V15.5371C19.1671 15.9169 18.9791 16.2967 18.6031 16.5341L16.6292 17.7211C16.3003 17.911 15.8773 17.911 15.5013 17.7211L13.4804 16.5341C13.1514 16.3442 12.9164 15.9644 12.9164 15.5371V14.0178L11.1305 15.0623V16.6291C11.1305 17.0089 11.3185 17.3887 11.6945 17.6261L15.5013 19.8576C15.8303 20.0475 16.2533 20.0475 16.6292 19.8576L20.436 17.6261C20.765 17.4362 21 17.0564 21 16.6291V12.1187C21 11.7389 20.812 11.3591 20.436 11.1217L16.6292 8.89021Z" fill="currentColor"/>
</svg>
