<svg width="28" height="28" viewBox="0 0 28 28" fill="currentColor" xmlns="http://www.w3.org/2000/svg"><path fill-rule="evenodd" clip-rule="evenodd" d="M15.746 5.635a1.065 1.065 0 1 1 0-2.127 1.065 1.065 0 1 1 0 2.127Zm-4.337 13.98L10.3 18.51l4.037-4.026 1.108 1.105-4.037 4.025ZM5.127 9.577c0-2.768 2.257-5.018 5.032-5.018 2.776 0 5.033 2.25 5.033 5.018s-2.257 5.018-5.033 5.018c-2.775 0-5.032-2.25-5.032-5.018ZM11.032 0C4.938 0 0 4.924 0 11s4.938 11 11.032 11c1.032 0 2.03-.141 2.978-.405a8 8 0 0 1 7.636-7.587c.272-.956.417-1.965.417-3.008 0-6.076-4.938-11-11.031-11Zm-.876 6.117A3.466 3.466 0 0 0 6.69 9.572a3.466 3.466 0 0 0 6.93 0 3.466 3.466 0 0 0-3.465-3.455Z"/><path d="m25.921 19.64-1.325 1.323a1.866 1.866 0 0 0 0-2.643l-.075-.076L23.273 17l-2.147.5 2.07 2.065L17 25.744l1.4 1.396 6.197-6.178 1.438 1.434 1.326-1.322-1.438-1.435-.002.002Z"/></svg>