<svg width="28" height="28" viewBox="0 0 28 28" fill="currentColor" xmlns="http://www.w3.org/2000/svg">
<path fill-rule="evenodd" clip-rule="evenodd" d="M16.1854 12.2399H18.6664V9.76601H16.1854V12.2399ZM11.5769 9.70726H14.0579V7.23346H11.5769V9.70726ZM11.5769 14.7724H14.0579V12.2986H11.5769V14.7724ZM6.96869 7.17472H9.44962V4.70085H6.96869V7.17472ZM6.96869 12.2399H9.44962V9.76601H6.96869V12.2399ZM6.96869 17.305H9.44962V14.8312H6.96869V17.305ZM0.333008 11C0.333008 4.92419 5.27148 0 11.3648 0C17.4582 0 22.3964 4.92419 22.3964 11C22.3964 12.0429 22.2509 13.0518 21.9791 14.0077C17.8596 14.187 14.5484 17.4818 14.3431 21.5946C13.3957 21.8587 12.3969 22 11.3648 22C5.27148 22 0.333008 17.0759 0.333008 11Z" fill="currentColor"/>
<path d="M26.2543 19.6407L24.9295 20.963C25.6611 20.2335 25.6611 19.0492 24.9295 18.3197L24.8539 18.2444L23.606 17L21.4586 17.5008L23.5291 19.5654L17.333 25.7436L18.7334 27.14L24.9295 20.9617L26.3684 22.3964L27.6944 21.0741L26.2556 19.6394L26.2543 19.6407Z" fill="currentColor"/>
</svg>
