<svg width="176" height="26" viewBox="0 0 176 26" fill="none" xmlns="http://www.w3.org/2000/svg">
<path d="M15.8612 0.992188H11.2157V5.27248C11.2157 2.90656 9.29857 0.992188 6.93536 0.992188H2.65796L0 5.27248H6.68953V25.2868H11.2157V5.27248H15.8612V0.992188Z" fill="#F76E42"/>
<path d="M39.5986 8.05762V25.2896H44.1248V15.7935V8.05762H39.5986Z" fill="#F76E42"/>
<path d="M79.5189 17.7997C78.9484 19.157 76.6636 22.2719 72.559 22.2719C69.4306 22.2719 67.1998 19.9466 67.1998 16.7478C67.1998 13.5491 69.4306 11.2238 72.559 11.2238C76.6473 11.2238 79.0431 14.2846 79.5189 15.6933V17.797V17.7997ZM79.5189 15.6933C79.5189 12.2431 77.1962 7.63028 71.2881 7.63028C65.7046 7.63028 62.6953 11.9511 62.6953 16.7478C62.6953 21.5446 65.7776 25.8654 71.2881 25.8654C77.1962 25.8654 79.5189 21.1877 79.5189 17.8024V25.2895H84.0453V0.992188H79.5189V15.696V15.6933Z" fill="#F76E42"/>
<path d="M51.7632 7.63015C46.1689 7.63015 44.1221 12.243 44.1221 15.7932C44.5628 14.6306 46.4502 11.2669 50.5196 11.2669C53.1369 11.2669 55.1244 13.2732 55.1244 16.8559V25.2867H59.6505V16.8559C59.6505 10.9992 56.8168 7.62744 51.7632 7.62744" fill="#F76E42"/>
<path d="M111.553 8.05762V25.2896H116.076V15.7935V8.05762H111.553Z" fill="#F76E42"/>
<path d="M130.88 8.05762H126.354V25.2869H130.88V8.05762Z" fill="#F76E42"/>
<path d="M152.736 21.2744H135.02V25.2897H152.736V21.2744Z" fill="#F76E42"/>
<path d="M152.736 8.06055H135.02V12.0758H152.736V8.06055Z" fill="#F76E42"/>
<path d="M135.02 21.2744L148.831 17.2726C151.146 16.602 152.736 14.4822 152.736 12.0757L138.924 16.0775C136.61 16.748 135.02 18.8679 135.02 21.2744Z" fill="#F76E42"/>
<path d="M130.88 0H126.354V4.52634H130.88V0Z" fill="#F76E42"/>
<path d="M116.076 15.7824C116.084 15.558 116.322 12.2024 123.515 12.2024V8.06006C116.336 7.19481 116.082 15.5255 116.076 15.7824Z" fill="#F76E42"/>
<path d="M26.2358 11.1535C28.5422 11.1535 30.9676 12.6136 30.9676 15.0282H20.5415C21.3418 12.7786 23.586 11.1535 26.2358 11.1535ZM25.5788 18.6812H35.54C35.6833 18.0917 35.7592 17.4834 35.7592 16.8588C35.7592 11.7159 32.1035 7.85205 26.2144 7.85205C20.3253 7.85205 15.5527 11.8836 15.5527 16.8588C15.5527 21.8339 20.2036 25.8655 26.62 25.8655C31.4438 25.8655 34.3828 23.8051 35.6834 22.1611L32.4334 19.2706C31.4789 20.5983 29.4834 22.518 26.2387 22.518C22.994 22.518 20.2278 19.9737 20.2278 16.8344C20.2278 16.2206 20.3334 15.6312 20.5254 15.0769C20.5254 17.0697 20.6874 18.6785 25.5815 18.6785" fill="#F76E42"/>
<path d="M97.9946 11.1535C100.301 11.1535 102.726 12.6136 102.726 15.0282H92.3C93.1004 12.7786 95.3448 11.1535 97.9946 11.1535ZM97.3376 18.6812H107.299C107.442 18.0917 107.518 17.4834 107.518 16.8588C107.518 11.7159 103.862 7.85205 97.9729 7.85205C92.0838 7.85205 87.3115 11.8836 87.3115 16.8588C87.3115 21.8339 91.9622 25.8655 98.3785 25.8655C103.202 25.8655 106.141 23.8051 107.442 22.1611L104.192 19.2706C103.237 20.5983 101.242 22.518 97.9972 22.518C94.7525 22.518 91.9866 19.9737 91.9866 16.8344C91.9866 16.2206 92.092 15.6312 92.2813 15.0769C92.2813 17.0697 92.4436 18.6785 97.3376 18.6785" fill="#F76E42"/>
<path d="M166.48 11.1535C168.786 11.1535 171.212 12.6136 171.212 15.0282H160.785C161.586 12.7786 163.83 11.1535 166.48 11.1535ZM166.48 22.5207C163.16 22.5207 160.469 19.9764 160.469 16.8371C160.469 16.2233 160.574 15.6339 160.764 15.0796C160.764 17.0724 160.926 18.6812 165.82 18.6812H175.781C175.925 18.0917 176 17.4834 176 16.8588C176 11.7159 172.344 7.85205 166.455 7.85205C160.566 7.85205 155.794 11.8836 155.794 16.8588C155.794 21.8339 160.445 25.8655 166.861 25.8655C171.685 25.8655 174.624 23.8051 175.925 22.1611L172.674 19.2706C171.72 20.5983 169.725 22.518 166.48 22.518" fill="#F76E42"/>
</svg>
