<svg width="29" height="28" viewBox="0 0 29 28" fill="currentColor" xmlns="http://www.w3.org/2000/svg"><path fill-rule="evenodd" clip-rule="evenodd" d="m17.197 16.162-2.304 1.331-4.008-2.315v-1.751l1.563-.893v1.739l2.444 1.41 2.445-1.41v-2.826l-2.444-1.41-6.458 3.725-4.008-2.315v-4.63L8.435 4.5l4.007 2.315v1.822l-1.563.899V7.715l-2.444-1.41-2.445 1.41v2.827l2.445 1.41 6.457-3.725 4.008 2.315v4.398a7.953 7.953 0 0 1 3.35-.93c.271-.956.416-1.966.416-3.01 0-6.076-4.924-11-11-11-6.075 0-11 4.924-11 11s4.925 11 11 11a11.01 11.01 0 0 0 3.011-.417 7.977 7.977 0 0 1 2.52-5.421Z"/><path d="m26.588 19.64-1.325 1.323a1.866 1.866 0 0 0 0-2.643l-.076-.076L23.94 17l-2.147.5 2.07 2.065-6.195 6.179 1.4 1.396 6.196-6.178 1.439 1.434 1.326-1.322-1.439-1.435-.001.002Z"/></svg>